<svg id="Capa_1" enable-background="new 0 0 512 512" height="512" viewBox="0 0 512 512" width="512" xmlns="http://www.w3.org/2000/svg"><g><g><path d="m457.22 105.36c-3.474.967-14.35-2.503-14.149 4v214.27c.623 6.219 9.325 3.61 13.496 5.177 2.348.44 4.714-1.543 4.654-3.947v-215.5c-.001-2.209-1.792-4-4.001-4z" fill="#c0c5d7"/><path d="m409.35 105.36c-3.399.715-12.446-2.048-12.299 4.001 1.641 3.26-3.181 221.869 1.703 223.749 3.7 2.074 7.911-1.671 11.665-2.085 1.732-.482 2.931-2.058 2.931-3.855v-217.81c0-2.209-1.791-4-4-4z" fill="#c0c5d7"/><path d="m344.87 105.36c-3.422.793-13.013-2.194-12.85 4v216.439c-.043 2.143 1.853 4.047 4 4 4.008-.67 12.327 2.535 12.851-3.82-.021-70.22-.01-146.482 0-216.619.042-2.141-1.852-4.049-4.001-4z" fill="#c0c5d7"/><path d="m263.47 105.36h-14.75c-2.209 0-4 1.791-4 4v232.47c0 2.209 1.791 4 4 4h14.75c2.209 0 4-1.791 4-4v-232.47c0-2.209-1.791-4-4-4z" fill="#c0c5d7"/><path d="m176.17 105.36c-3.423.842-13.011-2.229-12.849 4.001 1.217 2.9-2.355 217.544 1.255 219.516 2.366 2.098 6.375.529 8.946.886 2.891.39 6.681-.318 6.647-3.953v-216.45c.001-2.209-1.79-4-3.999-4z" fill="#c0c5d7"/><path d="m111.14 105.36c-3.395.716-12.448-2.048-12.299 4.001 0-.001 0 217.86 0 217.86 0 1.792 1.192 3.366 2.918 3.851 4.31.893 12.461 6.195 13.382-1.161v-220.55c-.001-2.21-1.792-4.001-4.001-4.001z" fill="#c0c5d7"/><path d="m65.12 105.36c-3.48.967-14.346-2.503-14.15 4v215.47c-.046 2.143 1.86 4.049 4 4 4.463-1.497 13.385 1.064 14.151-5.209 0-.001 0-214.261 0-214.261-.001-2.209-1.792-4-4.001-4z" fill="#c0c5d7"/><path d="m256 3c-47.559-2.701-80.284 33.991-66.744 41.575 26.274-.171 41.845 36.307 42.459 58.152.191 2.058 1.917 3.633 3.985 3.633h40.6c2.067 0 3.794-1.575 3.983-3.634.602-21.901 16.237-58.342 42.507-58.16 13.54-7.616-18.749-44.253-66.79-41.566zm13.607 49.616c-2.986 1.965 1.436 15.302 1.328 17.997-17.633-9.271-12.087-9.245-29.682 0 3.375-19.643 5.048-14.355-9.177-28.24 19.717-2.855 15.213.383 24.018-17.438 8.813 17.872 4.353 14.574 24.018 17.438z" fill="#985bbc"/><path d="m396.24 362.59c-96.209 1.726-96.203 144.699.003 146.41 96.202-1.725 96.178-144.698-.003-146.41zm33.155 105.958c-44.718 42.663-108.483-20.661-66.147-65.69 44.705-42.224 108.088 20.734 66.147 65.69z" fill="#494a57"/><path d="m115.76 362.59c-96.196 1.726-96.19 144.699.003 146.41 96.215-1.725 96.19-144.699-.003-146.41zm0 119.84c-61.313-1.112-61.259-92.178.006-93.27l.067-4v4c61.392 1.665 61.422 91.66-.073 93.27z" fill="#494a57"/><path d="m243.013 54.434c.037 2.945-3.709 11.927-.136 13.931 2.976 2.79 10.449-3.558 13.218-4.42 2.814.873 10.21 7.202 13.218 4.42 3.571-1.969-.167-11.033-.135-13.931 1.698-2.404 10.013-7.479 8.297-11.199-.766-4.006-10.551-3.258-13.297-4.186-1.762-2.36-4.02-11.833-8.089-11.349-4.048-.507-6.347 9.021-8.076 11.348-2.787.947-12.501.167-13.298 4.186-1.734 3.691 6.621 8.835 8.298 11.2z" fill="#ffe07a"/><path d="m496.963 341.892c-27.775-18.259-82.316-20.318-110.938-1.757-30.993-14.264-63.297-17.426-91.365 4.696 0-.001-78.574-.001-78.574-.001-.88-.312-1.909-1.32-2.993-2.382-21.146-22.836-73.225-10.891-87.128-2.305-30.791-20.546-83.679-15.688-110.772 1.658-4.715-.705-.772 57.942-2.016 59.729.002 2.21 1.793 4.001 4.002 4.001h30.551c1.509 0 2.889-.849 3.569-2.194 12.4-24.516 37.101-39.746 64.46-39.746s52.06 15.229 64.461 39.746c.681 1.346 2.061 2.194 3.569 2.194h144.42c1.509 0 2.889-.849 3.569-2.194 12.401-24.516 37.102-39.746 64.461-39.746s52.06 15.229 64.46 39.746c.681 1.346 2.061 2.194 3.569 2.194h30.551c2.209 0 4-1.791 4-4-.862-1.553 2.059-60.627-1.856-59.639zm-457.653 29.108c-15.244-.081-15.243-23.241.001-23.32 15.244.081 15.242 23.241-.001 23.32zm433.38 0c-15.245-.081-15.244-23.241.001-23.32 15.244.081 15.242 23.241-.001 23.32z" fill="#d34242"/><path d="m280.373 105.043c1.974 3.766 183.32.053 186.273 1.32 16.005-.863 21.656-18.519 9.817-28.62 21.894-2.276 15.803-38.361 13.665-50.69-.48-2.852-4.141-4.251-6.388-2.396-41.477 28.157-82.154 69.409-110.945 37.557-18.758-22.888-72.957-31.014-86.926 12.308-4.045 12.58-8.027 23.071-5.496 30.521zm167.997-34.873c14.844.078 14.833 22.613-.001 22.69-14.821-.079-14.829-22.614.001-22.69zm-116.04-8.02c20.074.106 20.063 30.606-.001 30.71-20.078-.107-20.085-30.607.001-30.71z" fill="#d34242"/><path d="m35.54 77.743c-11.881 10.094-6.155 27.757 9.819 28.618h183.301c2.29.048 4.268-2.115 3.979-4.401-1.067-24.568-18.24-61.107-47.561-58.578-43.129-.913-40.361 27.928-69.597 30.991-17.31-.003-56.406-25.684-87.221-49.717-2.225-1.844-5.931-.466-6.388 2.396-2.149 12.325-8.222 48.421 13.668 50.691zm144.13-15.593c20.088.106 20.077 30.606-.001 30.71-20.064-.107-20.071-30.607.001-30.71zm-115.85 8.02c14.831.078 14.82 22.613-.001 22.69-14.834-.079-14.843-22.614.001-22.69z" fill="#d34242"/><path d="m472.69 346.68c-16.553.088-16.551 25.234.001 25.32 16.551-.087 16.55-25.234-.001-25.32z" fill="#ffbf48"/><path d="m448.37 69.17c-16.139.085-16.128 24.607.001 24.69 16.141-.086 16.149-24.607-.001-24.69z" fill="#ffbf48"/><path d="m315.97 77.5c.113 21.385 32.6 21.393 32.71-.001-.113-21.381-32.6-21.369-32.71.001z" fill="#ffbf48"/><path d="m163.32 77.5c.113 21.395 32.6 21.383 32.71-.001-.113-21.371-32.6-21.38-32.71.001z" fill="#ffbf48"/><path d="m63.82 69.17c-16.153.085-16.142 24.607.001 24.69 16.129-.086 16.137-24.607-.001-24.69z" fill="#ffbf48"/><path d="m39.31 346.68c-16.552.088-16.55 25.235.001 25.32 16.551-.088 16.55-25.234-.001-25.32z" fill="#ffbf48"/><g fill="#9499a9"><path d="m440.07 274.76h-23.72c-2.209 0-4 1.791-4 4 .415 3.385-1.794 12.222 4 12.08h23.721c5.767.147 3.621-8.703 4-12.08-.001-2.209-1.792-4-4.001-4z"/><path d="m440.07 209.63h-23.72c-2.209 0-4 1.791-4 4 .415 3.385-1.794 12.222 4 12.08h23.721c5.767.147 3.621-8.703 4-12.081-.001-2.208-1.792-3.999-4.001-3.999z"/><path d="m440.07 144.5h-23.72c-2.209 0-4 1.791-4 4 .415 3.385-1.794 12.222 4 12.08h23.721c5.767.147 3.621-8.703 4-12.08-.001-2.209-1.792-4-4.001-4z"/><path d="m396.24 420.89c-19.49.104-19.497 29.71.001 29.81 19.484-.102 19.474-29.709-.001-29.81z"/><path d="m398.05 286.84c-.436-3.385 1.809-12.222-4-12.08h-42.18c-5.766-.147-3.622 8.703-4 12.08 0 2.209 1.791 4 4 4h42.18c2.209 0 4-1.791 4-4z"/><path d="m351.87 225.71h42.18c5.766.147 3.622-8.703 4-12.081 0-2.209-1.791-4-4-4h-42.18c-2.209 0-4 1.791-4 4 .436 3.386-1.808 12.223 4 12.081z"/><path d="m351.87 160.58h42.18c5.766.147 3.622-8.703 4-12.08 0-2.209-1.791-4-4-4h-42.18c-2.209 0-4 1.791-4 4 .436 3.385-1.808 12.222 4 12.08z"/><path d="m329.02 274.76h-58.55c-5.764-.147-3.623 8.703-4 12.08 0 2.209 1.791 4 4 4h58.55c5.764.147 3.623-8.703 4-12.08 0-2.209-1.792-4-4-4z"/><path d="m329.02 209.63h-58.55c-5.764-.147-3.623 8.703-4 12.08 0 2.209 1.791 4 4 4h58.55c5.764.147 3.623-8.703 4-12.081 0-2.208-1.792-3.999-4-3.999z"/><path d="m329.02 144.5h-58.55c-5.764-.147-3.623 8.703-4 12.08 0 2.209 1.791 4 4 4h58.55c5.764.147 3.623-8.703 4-12.08 0-2.209-1.792-4-4-4z"/><path d="m241.72 274.76h-58.55c-5.765-.147-3.623 8.703-4 12.08 0 2.209 1.791 4 4 4h58.55c5.765.147 3.623-8.703 4-12.08 0-2.209-1.791-4-4-4z"/><path d="m241.72 209.63h-58.55c-5.765-.147-3.623 8.703-4 12.08 0 2.209 1.791 4 4 4h58.55c5.765.147 3.623-8.703 4-12.081 0-2.208-1.791-3.999-4-3.999z"/><path d="m241.72 144.5h-58.55c-5.765-.147-3.623 8.703-4 12.08 0 2.209 1.791 4 4 4h58.55c5.765.147 3.623-8.703 4-12.08 0-2.209-1.791-4-4-4z"/><path d="m160.32 274.76h-42.18c-5.766-.147-3.622 8.703-4 12.08 0 2.209 1.791 4 4 4h42.181c2.209 0 4-1.791 4-4-.436-3.386 1.808-12.222-4.001-12.08z"/><path d="m160.32 209.63h-42.18c-5.766-.147-3.622 8.703-4 12.08 0 2.209 1.791 4 4 4h42.181c2.209 0 4-1.791 4-4-.436-3.386 1.808-12.222-4.001-12.08z"/><path d="m160.32 144.5h-42.18c-5.766-.147-3.622 8.703-4 12.08 0 2.209 1.791 4 4 4h42.181c2.209 0 4-1.791 4-4-.436-3.385 1.808-12.222-4.001-12.08z"/><path d="m115.76 420.89c-19.476.103-19.483 29.71.001 29.81 19.498-.103 19.488-29.709-.001-29.81z"/><path d="m95.84 274.76h-23.72c-2.209 0-4 1.791-4 4 .415 3.385-1.794 12.222 4 12.08h23.72c5.767.147 3.621-8.703 4-12.08 0-2.209-1.791-4-4-4z"/><path d="m95.84 209.63h-23.72c-2.209 0-4 1.791-4 4 .415 3.385-1.794 12.222 4 12.08h23.72c5.767.147 3.621-8.703 4-12.081 0-2.208-1.791-3.999-4-3.999z"/><path d="m95.84 144.5h-23.72c-2.209 0-4 1.791-4 4 .415 3.385-1.794 12.222 4 12.08h23.72c5.767.147 3.621-8.703 4-12.08 0-2.209-1.791-4-4-4z"/></g></g><g><path d="m151.568 399.99c-9.245-9.117-21.816-14.849-35.806-14.832-27.911 0-50.638 22.726-50.638 50.638 0 27.911 22.726 50.638 50.638 50.638 27.911 0 50.638-22.726 50.638-50.638.018-13.99-5.714-26.561-14.832-35.806zm-2.595 64.068-18.327-18.328c1.283-1.917 2.205-4.094 2.671-6.434h25.931c-.751 9.405-4.491 17.976-10.275 24.762zm-76.695-24.762h25.93c.466 2.34 1.387 4.517 2.671 6.434l-18.327 18.327c-5.783-6.786-9.524-15.356-10.274-24.761zm10.274-31.76 18.327 18.327c-1.283 1.917-2.205 4.093-2.671 6.433h-25.93c.75-9.404 4.491-17.974 10.274-24.76zm33.211 39.163c-6.012 0-10.903-4.891-10.903-10.903s4.892-10.903 10.903-10.903c6.012 0 10.902 4.891 10.902 10.903s-4.891 10.903-10.902 10.903zm9.934-25.785c-1.917-1.284-4.094-2.206-6.434-2.672v-25.931c9.405.751 17.975 4.491 24.761 10.275zm-13.434-2.672c-2.34.466-4.517 1.388-6.434 2.671l-18.327-18.327c6.786-5.784 15.356-9.524 24.761-10.275zm-6.434 32.438c1.917 1.283 4.093 2.205 6.434 2.671v25.931c-9.405-.751-17.975-4.491-24.761-10.275zm13.434 2.671c2.34-.466 4.517-1.388 6.434-2.671l18.327 18.328c-6.786 5.784-15.356 9.524-24.761 10.275zm14.053-21.055c-.466-2.34-1.387-4.517-2.671-6.433l18.328-18.328c5.784 6.786 9.524 15.356 10.275 24.761z"/><path d="m39.313 343.677c-8.636 0-15.662 7.026-15.662 15.662s7.026 15.662 15.662 15.662 15.661-7.026 15.661-15.662-7.026-15.662-15.661-15.662zm0 24.323c-4.776 0-8.662-3.886-8.662-8.662s3.886-8.662 8.662-8.662c4.775 0 8.661 3.886 8.661 8.662s-3.886 8.662-8.661 8.662z"/><path d="m432.044 399.991c-.074-.074-.159-.128-.237-.194-9.152-9.043-21.717-14.638-35.569-14.638-13.853 0-26.419 5.596-35.571 14.64-.077.065-.161.119-.234.192s-.126.156-.191.234c-9.045 9.152-14.641 21.719-14.641 35.572 0 13.852 5.595 26.418 14.638 35.569.066.079.12.164.194.237.074.074.158.128.237.193 9.152 9.043 21.717 14.638 35.569 14.638 13.85 0 26.415-5.594 35.566-14.635.08-.067.166-.122.241-.197s.13-.161.197-.241c9.04-9.151 14.634-21.715 14.634-35.565 0-13.851-5.595-26.416-14.637-35.568-.068-.078-.122-.163-.196-.237zm-2.596 64.066-18.327-18.327c1.284-1.917 2.205-4.094 2.671-6.434h25.93c-.75 9.405-4.491 17.975-10.274 24.761zm-76.696-24.761h25.931c.466 2.34 1.388 4.517 2.671 6.434l-18.327 18.328c-5.784-6.786-9.524-15.357-10.275-24.762zm10.275-31.761 18.328 18.328c-1.283 1.917-2.205 4.093-2.671 6.433h-25.931c.75-9.404 4.49-17.974 10.274-24.761zm33.21 39.164c-6.012 0-10.902-4.891-10.902-10.903s4.891-10.903 10.902-10.903c6.012 0 10.903 4.891 10.903 10.903.001 6.012-4.891 10.903-10.903 10.903zm9.934-25.786c-1.917-1.284-4.094-2.205-6.434-2.671v-25.931c9.405.751 17.975 4.491 24.761 10.275zm-13.434-2.671c-2.34.466-4.517 1.388-6.434 2.672l-18.327-18.327c6.786-5.784 15.357-9.524 24.761-10.275zm-6.433 32.437c1.917 1.284 4.093 2.206 6.434 2.671v25.931c-9.404-.751-17.975-4.491-24.761-10.275zm13.433 2.672c2.34-.466 4.517-1.388 6.434-2.671l18.327 18.327c-6.786 5.784-15.356 9.524-24.761 10.275zm14.055-21.055c-.466-2.34-1.387-4.517-2.671-6.433l18.327-18.327c5.783 6.786 9.523 15.356 10.274 24.76z"/><path d="m500.214 340.332c-.584-.375-14.545-9.243-35.826-14.072-.056-.013-.115-.025-.172-.038v-216.866c9.393.773 18.064-4.403 20.664-13.681 1.699-5.799.675-11.633-2.588-16.202 2.785-1.12 5.17-2.944 7.131-5.462 11.833-15.193 2.783-51.729 2.392-53.278-.536-2.416-3.708-3.476-5.59-1.868-18.118 14.603-69.551 52.501-89.704 52.501-9.71 0-14.979-4.993-21.649-11.314-8.93-8.463-19.972-18.92-45.183-19.635-1.173-4.029-4.164-11.604-11.345-19.144-16.745-17.582-43.146-21.273-62.344-21.273s-45.599 3.691-62.346 21.274c-7.181 7.54-10.172 15.115-11.345 19.144-25.21.715-36.253 11.172-45.183 19.635-6.67 6.321-11.938 11.314-21.648 11.314-20.153 0-71.586-37.898-89.704-52.501-.929-.747-2.175-.973-3.306-.594-1.131.378-1.992 1.306-2.284 2.462-.793 1.897-11.911 51.134 9.522 58.739-9.58 12.834 2.275 32.282 18.267 29.884v216.825c-20.916 4.6-35.828 13.856-36.188 14.151-1.003.644-1.608 1.753-1.608 2.945v61.749c0 1.933 1.567 3.5 3.5 3.5h30.945c-3.26 8.473-5.064 17.663-5.064 27.27 0 42.019 34.185 76.204 76.204 76.204s76.203-34.185 76.203-76.204c0-9.608-1.805-18.797-5.064-27.27h138.197c-3.259 8.473-5.064 17.663-5.064 27.27 0 42.019 34.185 76.204 76.203 76.204 42.02 0 76.204-34.185 76.204-76.204 0-9.608-1.805-18.797-5.064-27.27h30.945c1.933 0 3.5-1.567 3.5-3.5v-61.749c0-1.192-.605-2.301-1.608-2.946zm-42.998-15.471c-3.199-.527-6.593-.951-10.15-1.226v-214.279h10.15zm-56.162 4.981v-220.486h8.294v217.814c-2.74.759-5.506 1.646-8.294 2.672zm-15.133 6.924c-3.967-1.984-19.886-8.286-34.049-10.023v-32.904h42.182v38.856c-2.701 1.216-5.414 2.566-8.133 4.071zm-90.939 5.065h-24.515v-47.991h58.549v32.494c-18.388-.001-34.034 15.497-34.034 15.497zm-46.26 0v-232.475h14.746v232.474h-14.746zm-31.704 0c-9.185-8.752-21.308-13.955-33.844-15.476v-32.515h58.548v47.991zm-98.881-9.048v-38.944h42.182v32.876c-14.13 1.697-30.261 8.052-34.239 10.05-2.657-1.469-5.306-2.788-7.943-3.982zm-46.012-9.481v-29.463h23.717v31.677c-8.317-1.72-16.296-2.323-23.717-2.214zm23.717-213.946v32.144h-23.717v-32.144zm0 104.272v8.083h-23.717v-8.083zm-23.717-7v-43.044h23.717v43.044zm23.717 22.083v43.044h-23.717v-43.044zm0-72.128h-23.717v-8.083h23.717zm-23.717 122.173h23.717v8.083h-23.717zm30.717-169.4h8.295v220.555c-2.788-1.032-5.555-1.924-8.295-2.688zm57.476 0v32.144h-42.182v-32.144zm15.856 0v216.451c-2.949-.103-5.903-.016-8.855.161v-216.612zm56.259 0h9.289v32.144h-58.548v-32.144zm-49.259 97.272v-43.044h58.548v43.044zm58.548 7v8.083h-58.548v-8.083zm-58.548 15.083h58.548v43.044h-58.548zm58.548-72.128h-58.548v-8.083h58.548zm-58.548 122.173h58.548v8.083h-58.548zm-22.856-57.045h-42.182v-8.083h42.182zm0-15.083h-42.182v-43.044h42.182zm-42.181 22.083h42.182v43.044h-42.182zm42.181-72.128h-42.182v-8.083h42.182zm-42.181 122.173h42.182v8.083h-42.182zm161.43-169.4h49.449v32.144h-58.549v-32.144zm65.305 0c-.012 70.103-.02 146.414 0 216.621-2.952-.179-5.907-.267-8.855-.181v-216.44zm49.182 0v32.144h-42.182v-32.144zm-42.182 97.272v-43.044h42.182v43.044zm42.182 7v8.083h-42.182v-8.083zm-42.182 15.083h42.182v43.044h-42.182zm42.182-72.128h-42.182v-8.083h42.182zm-42.182 122.173h42.182v8.083h-42.182zm-22.855-57.045h-58.549v-8.083h58.549zm0-15.083h-58.549v-43.044h58.549zm-58.549 22.083h58.549v43.044h-58.549zm58.549-72.128h-58.549v-8.083h58.549zm-58.549 122.173h58.549v8.083h-58.549zm169.597-169.4v32.144h-23.718v-32.144zm-23.717 97.272v-43.044h23.718v43.044zm23.717 7v8.083h-23.718v-8.083zm-23.717 15.083h23.718v43.044h-23.718zm23.717-72.128h-23.718v-8.083h23.718zm-23.717 122.173h23.718v8.083h-23.718zm0 15.083h23.718v29.467c-7.418-.122-15.398.469-23.718 2.173zm-19.826-215.473c23.043 0 74.225-38.507 89.682-50.561 2.32 12.013 4.576 33.078-2.305 41.908-2.146 2.753-5.073 4.091-8.95 4.091-3.467-.108-4.813 4.851-1.775 6.519 5.531 3.544 6.204 9.239 4.989 13.386-1.168 3.989-4.887 8.648-11.52 8.648h-183.3c.537-5.37 2.06-15.935 6.24-26.348 7.625-18.997 20.186-28.63 37.333-28.633h.003.006c24.395.001 34.35 9.434 43.134 17.758 7.18 6.804 13.963 13.232 26.463 13.232zm-140.522-71.366c49.81 0 63.112 24.027 66.433 33.583-17.839 1.607-31.411 12.923-39.413 32.986-4.664 11.693-6.214 23.242-6.717 28.787h-40.604c-.503-5.545-2.053-17.095-6.717-28.787-7.995-20.044-21.548-31.358-39.363-32.982 3.436-9.512 17.016-33.587 66.381-33.587zm-222.162 86.708c-1.215-4.147-.542-9.841 4.983-13.382 3.045-1.663 1.7-6.631-1.77-6.522-3.877 0-6.805-1.338-8.95-4.091-6.881-8.83-4.625-29.894-2.305-41.908 15.457 12.054 66.639 50.561 89.682 50.561 12.5 0 19.282-6.428 26.463-13.232 8.784-8.324 18.739-17.758 43.136-17.758 17.15 0 29.714 9.633 37.34 28.633 4.18 10.413 5.703 20.979 6.24 26.348h-183.3c-6.632-.001-10.351-4.66-11.519-8.649zm21.136 15.648h10.151v214.263c-3.556.269-6.951.687-10.151 1.209zm60.789 395.644c-38.159 0-69.204-31.044-69.204-69.204s31.045-69.204 69.204-69.204 69.203 31.044 69.203 69.204-31.044 69.204-69.203 69.204zm280.474 0c-38.159 0-69.203-31.044-69.203-69.204s31.044-69.204 69.203-69.204 69.204 31.044 69.204 69.204-31.044 69.204-69.204 69.204zm98.585-103.474h-30.554c-12.568-24.848-38.334-41.933-68.031-41.933-29.696 0-55.461 17.085-68.03 41.933h-144.415c-12.568-24.848-38.333-41.933-68.03-41.933s-55.462 17.085-68.031 41.933h-30.553v-56.258c4.161-2.374 16.077-8.607 32.229-12.236 26.671-5.97 51.705-2.501 74.796 10.713 1.031.606 2.266.552 3.33.086.504-.255 47.461-23.586 78.996-1.549 3.322 1.691 5.392 5.836 9.067 6.548h79.069c1.129 0 2.221-.387 3.117-1.075 20.647-15.856 40.354-18.313 65.961-11.412 7.072 1.913 14.121 4.146 20.667 7.457 1.076.544 2.365.581 3.39-.056 30.297-18.818 80.292-15.425 107.024 1.523v56.259z"/><path d="m457.026 359.338c0 8.636 7.025 15.662 15.661 15.662s15.662-7.026 15.662-15.662-7.026-15.662-15.662-15.662-15.661 7.027-15.661 15.662zm15.662-8.661c4.776 0 8.662 3.886 8.662 8.662s-3.886 8.662-8.662 8.662c-4.775 0-8.661-3.886-8.661-8.662-.001-4.776 3.885-8.662 8.661-8.662z"/><path d="m239.787 55.481-2.65 15.457c-.567 2.757 2.634 5.08 5.078 3.689l13.88-7.298 13.881 7.298c2.442 1.389 5.646-.933 5.078-3.69l-2.65-15.457 11.23-10.946c2.078-1.897.855-5.657-1.94-5.97l-15.52-2.256-6.94-14.063c-1.163-2.563-5.115-2.562-6.277 0l-6.939 14.063-15.52 2.256c-2.796.313-4.018 4.073-1.941 5.97zm9.057-12.509c1.141-.166 2.126-.882 2.636-1.915l4.615-9.353 4.616 9.353c.51 1.033 1.495 1.749 2.636 1.915l10.322 1.5-7.47 7.28c-.824.804-1.201 1.962-1.006 3.098l1.763 10.281-9.232-4.854c-1.02-.536-2.238-.536-3.258 0l-9.231 4.854 1.763-10.28c.195-1.136-.182-2.294-1.006-3.098l-7.47-7.28z"/><path d="m179.674 96.857c10.672 0 19.355-8.683 19.355-19.355s-8.683-19.355-19.355-19.355c-10.673 0-19.355 8.683-19.355 19.355-.001 10.672 8.682 19.355 19.355 19.355zm0-31.71c6.813 0 12.355 5.542 12.355 12.355s-5.542 12.355-12.355 12.355-12.355-5.542-12.355-12.355 5.542-12.355 12.355-12.355z"/><path d="m312.972 77.502c0 10.672 8.683 19.355 19.354 19.355 10.673 0 19.355-8.683 19.355-19.355s-8.683-19.355-19.355-19.355-19.354 8.683-19.354 19.355zm31.71 0c0 6.813-5.543 12.355-12.355 12.355s-12.354-5.542-12.354-12.355 5.542-12.355 12.354-12.355 12.355 5.542 12.355 12.355z"/><path d="m448.374 96.857c8.461 0 15.345-6.883 15.345-15.344s-6.884-15.344-15.345-15.344-15.344 6.883-15.344 15.344 6.883 15.344 15.344 15.344zm0-23.688c4.602 0 8.345 3.743 8.345 8.344s-3.743 8.344-8.345 8.344c-4.601 0-8.344-3.743-8.344-8.344s3.743-8.344 8.344-8.344z"/><path d="m63.816 96.857c8.461 0 15.344-6.883 15.344-15.344s-6.883-15.344-15.344-15.344-15.345 6.883-15.345 15.344c.001 8.461 6.884 15.344 15.345 15.344zm0-23.688c4.601 0 8.344 3.743 8.344 8.344s-3.743 8.344-8.344 8.344c-4.602 0-8.345-3.743-8.345-8.344.001-4.601 3.744-8.344 8.345-8.344z"/></g></g></svg>