<svg id="search" xmlns="http://www.w3.org/2000/svg" width="16.555" height="16.555" viewBox="0 0 16.555 16.555">
  <path id="Path_1" data-name="Path 1" d="M21.256,2.525a1.715,1.715,0,1,0-.731.731l.731.731a.517.517,0,0,0,.731-.732Zm-2.221-.8a.69.69,0,1,1,.69.69A.692.692,0,0,1,19.035,1.724Z" transform="translate(-5.584)" fill="#fff"/>
  <path id="Path_2" data-name="Path 2" d="M1.207,4.139H9.829a1.208,1.208,0,0,0,1.207-1.207V1.207A1.208,1.208,0,0,0,9.829,0H1.207A1.208,1.208,0,0,0,0,1.207V2.932A1.208,1.208,0,0,0,1.207,4.139Z" fill="#fff"/>
  <path id="Path_3" data-name="Path 3" d="M1.207,19.037H6.38a1.208,1.208,0,0,0,1.207-1.207V9.207A1.208,1.208,0,0,0,6.38,8H1.207A1.208,1.208,0,0,0,0,9.207v8.622A1.208,1.208,0,0,0,1.207,19.037Z" transform="translate(0 -2.482)" fill="#fff"/>
  <path id="Path_4" data-name="Path 4" d="M19.38,8H14.207A1.208,1.208,0,0,0,13,9.207v2.414a1.208,1.208,0,0,0,1.207,1.207H19.38a1.208,1.208,0,0,0,1.207-1.207V9.207A1.208,1.208,0,0,0,19.38,8Z" transform="translate(-4.033 -2.482)" fill="#fff"/>
  <path id="Path_5" data-name="Path 5" d="M19.38,17H14.207A1.208,1.208,0,0,0,13,18.207v2.414a1.208,1.208,0,0,0,1.207,1.207H19.38a1.208,1.208,0,0,0,1.207-1.207V18.207A1.208,1.208,0,0,0,19.38,17Z" transform="translate(-4.033 -5.274)" fill="#fff"/>
</svg>
